<svg width="48" height="48" viewBox="0 0 48 48" fill="none" xmlns="http://www.w3.org/2000/svg">
<rect width="48" height="48" fill="white"/>
<path d="M24 33H27M15 18L18 19L15 18ZM18 19L15 28C15.8657 28.649 16.9185 28.9999 18.0005 28.9999C19.0825 28.9999 20.1353 28.649 21.001 28L18 19ZM18 19L21 28L18 19ZM18 19L24 17L18 19ZM30 19L33 18L30 19ZM30 19L27 28C27.8657 28.649 28.9185 28.9999 30.0005 28.9999C31.0825 28.9999 32.1353 28.649 33.001 28L30 19ZM30 19L33 28L30 19ZM30 19L24 17L30 19ZM24 15V17V15ZM24 33V17V33ZM24 33H21H24Z" stroke="#121212" stroke-linecap="round" stroke-linejoin="round"/>
</svg>
