<svg width="14" height="14" viewBox="0 0 14 14" fill="none" xmlns="http://www.w3.org/2000/svg">
<path d="M6.33418 2.04889C6.54418 1.40419 7.45628 1.40419 7.66558 2.04889L8.41458 4.35329C8.46034 4.49364 8.5493 4.61592 8.66873 4.70267C8.78817 4.78941 8.93197 4.83618 9.07958 4.83629H11.503C12.1813 4.83629 12.4627 5.70429 11.9146 6.10329L9.95458 7.52709C9.83491 7.61391 9.74579 7.7364 9.70002 7.87699C9.65424 8.01758 9.65416 8.16905 9.69978 8.30969L10.4488 10.6141C10.6588 11.2588 9.92028 11.7957 9.37078 11.3967L7.41078 9.97289C7.29123 9.8861 7.14728 9.83935 6.99953 9.83935C6.85179 9.83935 6.70784 9.8861 6.58828 9.97289L4.62828 11.3967C4.07948 11.7957 3.34168 11.2588 3.55098 10.6141L4.29998 8.30969C4.34561 8.16905 4.34552 8.01758 4.29975 7.87699C4.25398 7.7364 4.16486 7.61391 4.04518 7.52709L2.08588 6.10399C1.53778 5.70499 1.81988 4.83699 2.49748 4.83699H4.92018C5.06792 4.83703 5.21188 4.79033 5.33145 4.70357C5.45103 4.61681 5.54009 4.49445 5.58588 4.35399L6.33488 2.04959L6.33418 2.04889Z" fill="#E6E6E6"/>
</svg>
