<svg width="18" height="18" viewBox="0 0 18 18" fill="none" xmlns="http://www.w3.org/2000/svg">
<g opacity="0.6">
<path d="M13.5 7.20005C14.0483 7.20007 14.5835 7.03319 15.0346 6.72161C15.4857 6.41003 15.8313 5.96851 16.0253 5.45577C16.2194 4.94302 16.2527 4.38335 16.121 3.85118C15.9892 3.31901 15.6986 2.83956 15.2877 2.47658C14.8769 2.1136 14.3652 1.8843 13.8209 1.81917C13.2765 1.75404 12.7252 1.85617 12.2403 2.11197C11.7554 2.36777 11.3599 2.76512 11.1063 3.25119C10.8527 3.73725 10.7531 4.289 10.8207 4.83305L6.37473 7.05605C5.99334 6.68827 5.51217 6.44083 4.99116 6.34455C4.47015 6.24827 3.93232 6.30742 3.44468 6.51461C2.95704 6.72181 2.54114 7.0679 2.24878 7.50977C1.95642 7.95164 1.80054 8.46977 1.80054 8.9996C1.80054 9.52943 1.95642 10.0476 2.24878 10.4894C2.54114 10.9313 2.95704 11.2774 3.44468 11.4846C3.93232 11.6918 4.47015 11.7509 4.99116 11.6547C5.51217 11.5584 5.99334 11.3109 6.37473 10.9432L10.8207 13.1662C10.742 13.7982 10.8892 14.4377 11.2363 14.9717C11.5835 15.5056 12.1082 15.8997 12.7178 16.0842C13.3274 16.2687 13.9826 16.2318 14.5676 15.98C15.1526 15.7281 15.6297 15.2776 15.9147 14.708C16.1997 14.1384 16.2741 13.4864 16.1248 12.8673C15.9756 12.2481 15.6122 11.7016 15.099 11.3244C14.5858 10.9472 13.9558 10.7636 13.3203 10.806C12.6848 10.8484 12.0848 11.114 11.6262 11.5561L7.18023 9.33305C7.20747 9.11189 7.20747 8.88822 7.18023 8.66705L11.6262 6.44405C12.1104 6.91205 12.771 7.20005 13.5 7.20005Z" fill="#121212"/>
</g>
</svg>
